# xmcd
#
# Track frame offsets:
#	150
#	24630
#	44757
#	61685
#	80325
#	97215
#	116877
#	132167
#	146235
#	165162
#	181105
#	196637
#	215925
#	231720
#	253897
#
# Disc length: 3574 seconds
#
# Revision: 1
# Processed by: cddbd v1.5PL3 Copyright (c) Steve Scherf et al.
# Submitted via: CDex 1.50Beta5
#
DISCID=e10df40f
DTITLE=AOR - Aor Forever Best
DYEAR=1999
DGENRE=Pop
TTITLE0=Ambrosia/The Biggest Part Of Me
TTITLE1=Lee Ritenonur/Is It You?
TTITLE2=The Doobie Brothers/What A Fool Believes
TTITLE3=Bruce Roberts/I Don't Wanna Go
TTITLE4=Ricky Peterson/Livin' It Up
TTITLE5=Yellowjackets/Lonelly Weekend
TTITLE6=John O'banion/Love You Like I Never Loved Before
TTITLE7=Wilson Brothers/Ticket To My Heart
TTITLE8=Larsen-Feiten Band/Who'll Be The Fool Tonight
TTITLE9=Bill Champlin/Gotta Get Back To Love
TTITLE10=Steve Kipner/Love Is Its Own Reward
TTITLE11=Stephen Bishop/It Might Be You
TTITLE12=Robbie Dupree/Steal Away
TTITLE13=David Pack/I Just Can't Let Go
TTITLE14=Andrew Gold/That's Why I Love You
EXTD=
EXTT0=
EXTT1=
EXTT2=
EXTT3=
EXTT4=
EXTT5=
EXTT6=
EXTT7=
EXTT8=
EXTT9=
EXTT10=
EXTT11=
EXTT12=
EXTT13=
EXTT14=
PLAYORDER=
